<?xml version="1.0" encoding="utf-8"?>
<!-- Generator: Adobe Illustrator 22.1.0, SVG Export Plug-In . SVG Version: 6.00 Build 0)  -->
<svg version="1.1" id="Layer_1" xmlns="http://www.w3.org/2000/svg" xmlns:xlink="http://www.w3.org/1999/xlink" x="0px" y="0px"
	 viewBox="0 0 1000 1000" style="enable-background:new 0 0 1000 1000;" xml:space="preserve">
<style type="text/css">
	.st0{fill:#CCCCCC;}
	.st1{fill:#128CFF;}
	.st2{opacity:0.3;fill:#FFFFFF;}
	.st3{fill:#FF931E;}
	.st4{fill:#ADADAD;}
	.st5{opacity:0.3;}
	.st6{fill:#FFFFFF;}
	.st7{fill:#3F5176;}
	.st8{fill:#DEDEDE;}
</style>
<g>
	<path class="st0" d="M475.9,581.5h188.6c2.5,0,4.5,1.9,4.6,4.4l1.5,26c0.1,1.8,2.5,2.3,3.3,0.7l13.7-28.4c0.8-1.6,2.4-2.6,4.2-2.6
		h87.9c-3.4-54.2-18.8-109.1-46-163.4c-12.1-24.2-30-46.1-42.2-59.5c-36.5,25.2-73.5,36.1-101.2,44.1c-5.5,1.6-10.8,3.1-15.4,4.6
		c-12.1,3.9-22.6,7.2-29.9,11.3c-18.7,10.4-33.5,30.7-39,38.3c-0.6,0.8-1.1,1.5-1.4,1.9c-0.8,1-2,1.6-3.3,1.6
		c-1.3,0-2.5-0.6-3.3-1.6c-0.7-1-1.7-2.4-2.9-4.3c-5.3-8.1-16.3-25-32.4-35.9c-7.3-5-30-12.7-44.9-15.3
		c-28.6-5-62.8-13.3-108.6-47.7c-11.8,14.3-28.7,37.5-43.2,68.2c-20,42.2-38.4,111.9-41.8,157.6H329c0.9,0,1.7,0.4,2.3,1.1
		c0.3,0.3,0.5,0.8,0.6,1.2c6.1-1.5,12.5-2.3,19.2-2.3H441c11.6,0,22.5,2.3,32.3,7l-0.2-3.9c0-0.8,0.2-1.6,0.8-2.2
		C474.3,581.8,475.1,581.5,475.9,581.5z M458.5,466.4c-15.4,13.7-30,20.5-45.5,20.5c-14.2,0-29.2-3.9-46.3-15.3
		c-42.9-28.6-49-68.4-49.2-70c-0.3-2.2-1.6-10.8-0.4-11.3c1.1-0.5,7.3,4.3,9.2,5.5c9.5,5.8,20.7,8,37.2,9.3c12.4,0.9,22.3,3,38.9,9
		c37.7,13.7,56.2,43.4,57.1,44.7C461.1,461.1,460.7,464.4,458.5,466.4z M543.2,458.7c0.9-1.3,22-30.9,58.4-43.1
		c16.9-5.6,32-8.6,44.2-11.1c13.3-2.6,23.7-4.7,30.6-8.8c1.9-1.2,7.6-4.4,8.6-4c1,0.4,0.5,7.6,0.1,9.9c-0.2,1.6-2.8,40.9-45.7,69.5
		c-17.1,11.4-35.6,15.8-49.8,15.8c-15.5,0-30.1-6.8-45.5-20.5C541.9,464.4,541.5,461.1,543.2,458.7z M472.1,514.2
		c-6.8-16.7-9.8-32.3-7.1-33.2s17.9,28.5,23.9,39.1c3.5,6.1,6.7,11.9,9.4,16.3l2.9,4.7l4.6-8.1c3.5-6.2,11.2-21.5,11.2-21.5
		c3.6-8.4,16.9-29.8,19.1-29.1c2.3,0.7,0.7,14.2-5.1,28.1c-8.5,20-24.8,50.4-29.5,52.7l-0.1,0l-0.1,0c-0.6-0.3-6-3.5-15.6-20.2
		C479.9,532.9,472.8,515.9,472.1,514.2z"/>
	<path class="st1" d="M800.4,524.9c47.8-81.4,91.6-155.8,92.7-157.4c2.5-3.5-1.8-3.6-1.8-3.6l-159.5-1.2
		c10.4,14.2,21.3,31.4,30.5,49.8C777.6,443.3,793.6,489.7,800.4,524.9z"/>
	<path class="st1" d="M273.3,359.4l-162.1-1.2c-2.3,0-5.4,0-4.6,1.6l96.2,168.1c8.2-40.9,22.4-85.6,37.8-116.5
		C251,390.6,262.6,373.2,273.3,359.4z"/>
	<path class="st2" d="M799.2,378l-57.1-0.4c2.2,3.4,4.5,6.9,6.7,10.6C765.9,386,782.8,382.8,799.2,378z"/>
	<path class="st2" d="M162.5,434.4c19.9-10.9,43.9-19.4,72.3-25.9c2.7-0.6,5.4-1.2,8.1-1.8c6.3-12,12.9-22.9,19.4-32.4l-135.1-0.9
		L162.5,434.4z"/>
	<path class="st3" d="M136,642.4c6.7-19.2,19-28.8,36.9-28.8h119.5l-9.1,39.7h-69.6v0.1h-33.6c-1,0-1.9,0.4-2.9,1.2
		c-1,0.8-1.7,1.8-2.1,3.1l-5.2,23h70.1l-8.6,39.7h-70.5l-15.1,67.1h-42.6L136,642.4z"/>
	<path class="st3" d="M311.2,642.4c7.6-19.2,20.9-28.8,39.8-28.8c0.1,0,0.2,0,0.4,0c0.2,0,0.5,0,1,0c0.5,0,1.1,0,1.9,0
		c0.8,0,1.9,0,3.2,0s2.9,0,4.7,0c1.9,0,4.1,0,6.6,0c2.6,0,5.5,0,8.8,0c3.3,0,7.1,0,11.3,0c4.2,0,8.9,0,14.1,0s10.9,0,17.2,0
		c6.3,0,13.2,0,20.7,0c12.8,0,23.2,4.5,31.2,13.5c8,9,10.8,19.4,8.2,31.2c0,0.1,0,0.3-0.1,0.5c-0.1,0.3-0.2,0.6-0.3,1.1
		c-0.1,0.5-0.3,1.2-0.5,2.1c-0.2,1-0.5,2.1-0.8,3.6c-0.3,1.4-0.8,3.2-1.3,5.3c-0.5,2.1-1.1,4.5-1.8,7.4c-0.7,2.9-1.5,6.1-2.4,9.9
		c-0.9,3.7-1.9,7.9-3,12.6c-1.1,4.7-2.4,9.9-3.8,15.7c-1.4,5.8-3,12.2-4.7,19.3c-1.7,7.1-3.6,14.7-5.6,23
		c-6.8,19.2-20.1,28.8-39.7,28.8c-0.1,0-0.2,0-0.5,0c-0.2,0-0.5,0-1,0c-0.4,0-1.1,0-1.9,0s-1.9,0-3.2,0c-1.3,0-2.9,0-4.7,0
		c-1.8,0-4,0-6.6,0c-2.6,0-5.5,0-8.8,0s-7,0-11.2,0c-4.2,0-8.8,0-14,0s-10.9,0-17.1,0c-6.2,0-13.1,0-20.5,0
		c-13.2,0-23.7-4.5-31.7-13.5c-8-9-10.8-19.4-8.4-31.2c0-0.1,0-0.3,0.1-0.5c0-0.3,0.1-0.6,0.3-1.1c0.1-0.5,0.3-1.2,0.5-2.1
		c0.2-1,0.5-2.1,0.9-3.6c0.4-1.4,0.8-3.2,1.3-5.3c0.5-2.1,1.1-4.5,1.8-7.4c0.7-2.9,1.5-6.1,2.4-9.9c0.9-3.7,1.9-7.9,3.1-12.6
		c1.2-4.7,2.4-9.9,3.8-15.7c1.4-5.8,2.9-12.2,4.7-19.3C307.3,658.4,309.2,650.7,311.2,642.4z M408.5,747.7c2.7,0,4.5-1.4,5.5-4.3
		c0-0.1,0-0.2,0.1-0.4c0-0.2,0.1-0.5,0.2-0.9c0.1-0.4,0.2-1,0.5-1.8c0.2-0.8,0.5-1.8,0.7-2.9c0.3-1.2,0.6-2.6,1-4.4
		c0.4-1.8,1-3.8,1.6-6.2c0.6-2.3,1.3-5.1,2-8.2c0.7-3.1,1.6-6.6,2.5-10.6c1-3.9,2-8.3,3.2-13.2c1.2-4.8,2.5-10.2,4-16
		c1.4-5.8,3-12.3,4.7-19.3c0.3-1.6-0.1-3.1-1-4.3c-1-1.2-2.4-1.8-4.4-1.8c-0.1,0-0.2,0-0.5,0c-0.2,0-0.6,0-1,0c-0.5,0-1.1,0-1.9,0
		c-0.8,0-1.9,0-3.2,0s-2.9,0-4.8,0c-1.9,0-4.1,0-6.7,0s-5.6,0-9,0c-3.4,0-7.2,0-11.5,0s-9.1,0-14.3,0c-5.3,0-11.1,0-17.4,0
		c-2.8,0-4.6,1.4-5.5,4.3c0,0.1,0,0.2-0.1,0.4c0,0.2-0.1,0.5-0.3,0.9c-0.1,0.4-0.3,1-0.5,1.8c-0.2,0.8-0.4,1.8-0.7,2.9
		c-0.3,1.2-0.7,2.6-1.1,4.4c-0.4,1.8-0.9,3.8-1.5,6.2c-0.6,2.3-1.2,5.1-1.9,8.2c-0.7,3.1-1.6,6.6-2.6,10.6c-1,3.9-2.1,8.3-3.2,13.2
		c-1.2,4.8-2.5,10.2-3.9,16c-1.4,5.8-3,12.3-4.7,19.3c-0.3,1.6,0.2,3.1,1.3,4.3c1.1,1.2,2.5,1.8,4.2,1.8c0.1,0,0.2,0,0.5,0
		c0.2,0,0.6,0,1,0c0.5,0,1.1,0,1.9,0c0.8,0,1.9,0,3.2,0c1.3,0,2.9,0,4.8,0c1.9,0,4.2,0,6.7,0c2.6,0,5.6,0,9,0c3.4,0,7.2,0,11.4,0
		c4.2,0,9,0,14.3,0C396.3,747.7,402.1,747.7,408.5,747.7z"/>
	<path class="st3" d="M548.3,613.6l7.3,130.3l44-90.7l-2.5-39.6h41.4l7.4,130.3L709,613.6h42.3l-84.1,173.9h-59.7l-3.2-55.6
		L577,787.5h-25.2c-9.7,0-18-3.3-25-9.8c-7-6.5-10.8-14.8-11.6-24.7l-8.3-139.4H548.3z"/>
	<path class="st3" d="M758.7,642.4c2.1-8.7,6.6-15.7,13.5-21c6.9-5.2,14.9-7.9,23.9-7.9h12.3L786.2,709h0.1l-7.7,32.6
		c-0.3,1.6,0.1,3.1,1.2,4.3c1,1.2,2.4,1.8,4,1.8H838v0.1h48.2c-2,8.5-4.1,17.6-6.4,27.3c-1,4.1-1.9,8.2-3,12.5H773.1
		c-12.4,0-22.4-4.5-30.1-13.5c-7.7-9-10.3-19.4-7.8-31.2L758.7,642.4z"/>
	<path class="st2" d="M135.6,683.9l8.8-39.1c5.5-15.5,14.3-22.5,28.4-22.5h108.6l-5.1,22.2H205v0.1h-24.9c-3,0-5.7,1-8.3,3
		c-2.4,1.9-4.1,4.3-5.1,7.2l-6.6,28.9H135.6z"/>
	<path class="st2" d="M437.5,683.9l5.5-22.2c0.8-4.6-0.2-8.6-2.7-11.8c-2.6-3.3-6.6-5.2-11.3-5.2h-70.4c-6.7,0-11.8,3.9-13.8,10.5
		l-0.4,1.2v0.2c-0.2,0.7-0.4,1.4-0.6,2.3c-0.2,0.7-0.4,1.6-0.6,2.6c-0.3,1.2-0.7,2.7-1.1,4.5l-1.5,6.2c-0.6,2.3-2.5,10.4-2.8,11.6
		h-27.7c1.2-5,2.5-10.5,4-16.3c1.7-6.9,3.5-14.4,5.4-22.5c6.4-15.7,16.1-22.7,31.5-22.7H441c10.3,0,18.4,3.5,24.7,10.6
		c6.2,7,8.2,14.4,6.2,23.5c0,0.1-0.2,0.6-0.3,1.1c-0.2,0.6-0.4,1.4-0.6,2.5c-0.2,0.9-0.5,2.1-0.8,3.4c-0.3,1.4-0.8,3.1-1.3,5.2
		c-0.5,2.1-1.1,4.6-1.8,7.5l-1.9,7.7H437.5z"/>
	<polygon class="st2" points="684.7,683.9 714.5,622.4 737.3,622.4 707.6,683.9 	"/>
	<polygon class="st2" points="594.4,683.9 608.5,655 606.4,622.4 630.2,622.4 633.7,683.9 	"/>
	<polygon class="st2" points="519.9,683.9 516.2,622.4 540,622.4 543.5,683.9 	"/>
	<path class="st2" d="M758,683.9l9.2-39.5c1.6-6.7,5-12,10.3-16c5.3-4,11.6-6.1,18.6-6.1h1.3l-14.3,61.5H758z"/>
	<path class="st4" d="M320.9,272.2l-7.5-2.6c-28.3-9.9-49.8-17.5-71.9-37.3c15.7,38.1,43.2,72.3,83.7,104
		c39.1,30.6,70.7,40.1,96.1,47.7c4,1.2,8,2.4,11.8,3.6c13,4.2,24.2,7.7,33.1,12.7c16.7,9.3,28.5,23.1,35.2,31.3
		c6.1-7,19.9-21.5,37.5-31.2c8.9-4.9,20.1-8.5,33.1-12.7c31.8-10.2,69.5-23.9,113-58c49.7-38.9,66.4-64.5,77-86.4
		c1.1-2.2,2.1-4.4,3.1-6.6c-20.2,16.7-44.1,24.3-69.2,32.3c-7.4,2.4-15.1,4.8-22.7,7.5c-4.4,1.6-8.5,2.9-12.5,4.3
		c-14.4,4.9-26.7,9.1-46,18.4c-2.5,1.2-5,2.5-7.8,4c-28.1,15.1-52.8,36.8-73.2,64.5c-7.6,10.3-18.8,26.7-23.6,35.3l-0.6,1.1
		c-3.7,6.8-7.3,13.5-7.9,13.7c-0.6,0.1-3-5.5-3.4-6.5l-0.2-0.4c-0.8-1.6-2.7-5.7-4.3-9.3c-1.2-2.5-2.5-5.4-2.8-6l-1.9-3.6
		c-10.4-19.7-27.8-52.6-93.1-88.9c-2.5-1.4-5.1-2.7-7.6-3.9C363.3,287.2,340.7,279.3,320.9,272.2z"/>
	<path class="st0" d="M502.4,377.5c0.1,0.3,0.3,0.5,0.4,0.8c3.9-7.6,8.8-16.8,16.6-27.4c18.2-24.7,40.1-45,65-60.7
		c-16.8-8.3-42.7-16.8-78.8-16.8c-32.7,0-59.1,4.5-81.4,14.1C471.3,315.7,491.3,355.6,502.4,377.5z"/>
	<g class="st5">
		<path class="st6" d="M289,284.3c18.8,19.8,40.5,37,64.8,49.8c22,11.6,46.2,19.3,69.4,28.1c15.4,5.8,30.9,12,45.8,19.2
			c-14.6-21.5-38.8-49.3-75-68.7c-2.4-1.3-4.8-2.5-7.3-3.7c-48.7-23.5-86.5-29.9-118.2-48.9C274.8,268.5,281.6,276.6,289,284.3z"/>
	</g>
	<path class="st6" d="M632.3,461c16.1-10.7,24.3-23.4,30.1-34.5c5.9-11.2-1.4-13.1-8.1-11.8c-2,0.4-4.1,0.8-6.3,1.3
		c-12.5,2.5-26.6,5.3-42.8,10.7c-22.5,7.5-38.9,22.9-46.9,31.9c-1.3,1.4-1.1,3.7,0.5,4.8C581.2,480.2,604.1,479.9,632.3,461z"/>
	<path class="st6" d="M485,495.2c0,0.7,0.1,1.4,0.5,2.2c0.8,2,1.6,4.1,2.4,6.1c1.2,2.9,7.7,19.3,10,19.2c0.1,0,0.2,0,0.3-0.1
		c0.2-0.1,0.3-0.3,0.4-0.5c1.1-2.7,0.6-6,0.6-8.9c0-3.1,0-6.3,0-9.4c0-9.7,0.1-19.5-0.1-29.2c0-0.3,0-0.5-0.1-0.8
		c-0.1-0.2-0.3-0.5-0.6-0.5c-0.4-0.1-0.8,0.2-1,0.5c-0.7,0.8-1.4,1.8-1.9,2.7c-2.1,3.6-4.2,7.2-6.3,10.8c-0.9,1.5-1.8,3.1-2.7,4.6
		c-0.3,0.6-0.7,1.1-1,1.7C485.2,494.1,485.1,494.6,485,495.2z"/>
	<g>
		<path class="st7" d="M429,653.5c-0.1,0-0.2,0-0.5,0c-0.2,0-0.6,0-1,0c-0.5,0-1.1,0-1.9,0c-0.8,0-1.9,0-3.2,0s-2.9,0-4.8,0
			c-1.9,0-4.1,0-6.7,0s-5.6,0-9,0c-3.4,0-7.2,0-11.5,0s-9.1,0-14.3,0c-5.3,0-11.1,0-17.4,0c-2.8,0-4.6,1.4-5.5,4.3
			c0,0.1,0,0.2-0.1,0.4c0,0.2-0.1,0.5-0.3,0.9c-0.1,0.4-0.3,1-0.5,1.8c-0.2,0.8-0.4,1.8-0.7,2.9c-0.3,1.2-0.7,2.6-1.1,4.4
			c-0.4,1.8-0.9,3.8-1.5,6.2c-0.6,2.3-1.2,5.1-1.9,8.2c-0.7,3.1-1.6,6.6-2.6,10.6c-1,3.9-2.1,8.3-3.2,13.2c-1.2,4.8-2.5,10.2-3.9,16
			c-1.4,5.8-3,12.3-4.7,19.3c-0.3,1.6,0.2,3.1,1.3,4.3c1.1,1.2,2.5,1.8,4.2,1.8c0.1,0,0.2,0,0.5,0c0.2,0,0.6,0,1,0
			c0.5,0,1.1,0,1.9,0c0.8,0,1.9,0,3.2,0c1.3,0,2.9,0,4.8,0c1.9,0,4.2,0,6.7,0c2.6,0,5.6,0,9,0c3.4,0,7.2,0,11.4,0c4.2,0,9,0,14.3,0
			c5.3,0,11.1,0,17.5,0c2.7,0,4.5-1.4,5.5-4.3c0-0.1,0-0.2,0.1-0.4c0-0.2,0.1-0.5,0.2-0.9c0.1-0.4,0.2-1,0.5-1.8
			c0.2-0.8,0.5-1.8,0.7-2.9c0.3-1.2,0.6-2.6,1-4.4c0.4-1.8,1-3.8,1.6-6.2c0.6-2.3,1.3-5.1,2-8.2c0.7-3.1,1.6-6.6,2.5-10.6
			c1-3.9,2-8.3,3.2-13.2c1.2-4.8,2.5-10.2,4-16c1.4-5.8,3-12.3,4.7-19.3c0.3-1.6-0.1-3.1-1-4.3C432.5,654.1,431,653.5,429,653.5z"/>
		<path class="st7" d="M685,391.7c-1-0.4-6.7,2.8-8.6,4c-6.8,4.1-17.3,6.2-30.6,8.8c-12.2,2.4-27.3,5.4-44.2,11.1
			c-36.4,12.1-57.5,41.8-58.4,43.1c-1.7,2.4-1.3,5.7,0.9,7.7c15.4,13.7,30,20.5,45.5,20.5c14.2,0,32.7-4.4,49.8-15.8
			c42.9-28.6,45.5-67.9,45.7-69.5C685.5,399.3,686,392.2,685,391.7z M662.5,426.5c-5.8,11.1-14,23.8-30.1,34.5
			c-28.3,18.8-51.1,19.1-73.5,2.4c-1.5-1.1-1.7-3.4-0.5-4.8c8-8.9,24.4-24.4,46.9-31.9c16.2-5.4,30.3-8.2,42.8-10.7
			c2.2-0.4,4.3-0.8,6.3-1.3C661.1,413.4,668.3,415.3,662.5,426.5z"/>
		<path class="st7" d="M402.3,414c-16.6-6-26.5-8.1-38.9-9c-16.5-1.2-27.7-3.4-37.2-9.3c-1.9-1.2-8.1-6-9.2-5.5
			c-1.1,0.5,0.1,9.1,0.4,11.3c0.2,1.6,6.3,41.4,49.2,70c17.1,11.4,32.1,15.3,46.3,15.3c15.5,0,30.1-6.8,45.5-20.5
			c2.2-2,2.6-5.3,0.9-7.7C458.5,457.4,440,427.7,402.3,414z M443.3,463.7c-22.2,16.5-45,15-73.1-3.7c-16.7-11.1-26-22.9-30.8-34.6
			c-3.7-9.1,1.5-12.1,7.7-10.8c2.4,0.5,4.8,1,7.4,1.5c12.5,2.5,26.6,5.3,42.8,10.7c22.3,7.4,38.5,22.6,46.7,31.6
			C445.4,459.9,445.1,462.4,443.3,463.7z"/>
		<path class="st7" d="M536.2,482.4c-2.3-0.7-15.5,20.7-19.1,29.1c0,0-7.7,15.2-11.2,21.5l-4.6,8.1l-2.9-4.7
			c-2.7-4.4-6-10.2-9.4-16.3c-6-10.6-21.2-39.9-23.9-39.1s0.3,16.5,7.1,33.2c0.7,1.7,7.8,18.7,13.7,28.9c9.6,16.6,15,19.8,15.6,20.2
			l0.1,0l0.1,0c4.7-2.4,21-32.7,29.5-52.7C536.9,496.6,538.4,483.1,536.2,482.4z"/>
		<path class="st7" d="M940.3,329.2c-3.2-0.1-21.1,0-27.4,0H727.6c66.2-61.4,72.2-114.9,71.2-131.6l0-0.5c0-2.3-1.2-14.2-2.9-14.9
			c-2.8-1.3-9.6,7.5-10.4,8.6c-24.6,34.4-57.1,42.2-92.7,54.3c-5.1,1.7-10.4,3.5-15.9,5.5c-3.8,1.3-7.8,2.7-11.8,4.1
			c-14.8,5.1-31.4,10.8-48.8,18.5c-24.9-13.1-63.8-25.2-99.8-26c-3.3-0.1-6.6-0.1-9.8-0.1c-47.1,0-81.9,7.2-115.4,24.2
			c-13.6-5.3-27.7-9.8-40.7-13.9c-7.6-2.4-14.8-4.7-20.9-6.8c-6.6-2.3-13-4.4-19.1-6.5c-35.2-11.7-62.9-20.9-86.8-54.3
			c-0.8-1.1-5.2-9.5-9.6-9.5c-0.5,0-1.1,0.1-1.6,0.2c-4.7,1.6-4.7,12.1-4.7,14.5l0,0.4c-0.2,8.8,1,27.4,11.3,52.3
			c11.8,28.5,31.4,55.8,58.5,81.5H103.3c-10.4,0-27.6-0.3-42-0.2c-5.5,0.1-8.8,2.6-8.3,5.6c1.6,8.5,72.8,133.9,137.6,246.8h-17.8
			c-31.6,0-56.1,18.4-67.2,50.4l-0.5,1.5c0,0.1-0.1,0.2-0.1,0.3L63.9,816.1c-0.2,0.9,0,1.8,0.6,2.5c0.6,0.7,1.4,1.1,2.3,1.1h102.4
			c1.4,0,2.6-0.9,2.8-2.3c0,0,11.9-53.1,14.5-64.8h3.2c17.6,0,39.5,0,60.7,0.2c0.5,0,1.1,0,1.6,0c0.4,0,0.9,0,1.3,0
			c0.5,0,0.7,0,0.9,0c0.1,0.7,0,1.8,0,2.5c0,1-0.1,1.9,0,2.5c0.5,4.6,1.4,9.1,2.9,13.4c2.8,8.7,7.6,16.8,14.1,24.2
			c14.1,15.9,33.3,24.3,55.7,24.3h89.3c31.3,0,55.8-16.4,68-45.1c0.6-1.4,2.6-1.4,3.2,0.1c3.7,10.1,9.6,19.1,17.5,26.5
			c12.9,12.1,29.1,18.5,47,18.5h132.6c1.8,0,3.4-1,4.2-2.6l17.5-36.1c0.6-1.3,2.4-1.3,3.1-0.1c2.5,4.9,5.7,9.6,9.4,14.1
			c13.8,16.2,32.7,24.7,54.5,24.7h125.3c2.1,0,4-1.5,4.5-3.5l5.1-20.9c1.1-4.3,2.1-8.6,3.1-12.8c2.2-9.7,4.4-18.7,6.3-27.2l8.4-35.9
			c0.2-0.9,0-1.8-0.6-2.5c-0.6-0.7-1.4-1.1-2.3-1.1h-54.9c-0.3-0.1-0.6-0.1-0.9-0.1h-47.2c-1.1,0-1.9-1-1.7-2.1l7.6-33
			c0.1-0.2,0.1-0.4,0.1-0.7l22-94.7c0.2-0.9,0-1.8-0.6-2.5c-0.6-0.7-1.4-1.1-2.3-1.1h-39.5l138.7-239.9
			C949.2,331.6,947.3,329.5,940.3,329.2z M505.7,273.3c36,0,62,8.5,78.8,16.8c-24.9,15.7-46.8,36-65,60.7
			c-7.9,10.6-12.8,19.9-16.6,27.4c-0.1-0.3-0.3-0.5-0.4-0.8c-11.1-21.9-31.1-61.8-78.1-90.1C446.5,277.9,472.9,273.3,505.7,273.3z
			 M241.5,232.4c22.1,19.8,43.6,27.3,71.9,37.3l7.5,2.6c19.9,7,42.4,15,67.1,26.9c2.5,1.2,5.1,2.5,7.6,3.9
			c65.3,36.3,82.7,69.3,93.1,88.9l1.9,3.6c0.3,0.6,1.6,3.4,2.8,6c1.6,3.6,3.5,7.7,4.3,9.3l0.2,0.4c0.4,0.9,2.9,6.6,3.4,6.5
			c0.6-0.1,4.1-6.9,7.9-13.7l0.6-1.1c4.8-8.6,16-25,23.6-35.3c20.5-27.7,45.1-49.4,73.2-64.5c2.8-1.5,5.3-2.8,7.8-4
			c19.3-9.3,31.7-13.5,46-18.4c4-1.4,8.1-2.7,12.5-4.3c7.6-2.7,15.3-5.1,22.7-7.5c25.1-8,49-15.5,69.2-32.3c-1,2.2-2,4.4-3.1,6.6
			c-10.6,21.9-27.3,47.5-77,86.4c-43.5,34.1-81.1,47.8-113,58c-13,4.2-24.2,7.7-33.1,12.7c-17.6,9.8-31.4,24.2-37.5,31.2
			c-6.7-8.2-18.5-22-35.2-31.3c-8.9-4.9-20.1-8.5-33.1-12.7c-3.8-1.2-7.7-2.4-11.8-3.6c-25.4-7.7-57-17.2-96.1-47.7
			C284.7,304.6,257.2,270.5,241.5,232.4z M111.2,358.2l162.1,1.2c-10.7,13.8-22.3,31.2-32.7,52c-15.4,30.8-29.6,75.6-37.8,116.5
			l-96.2-168.1C105.8,358.2,108.9,358.2,111.2,358.2z M213.7,653.3v0.1h-33.6c-1,0-1.9,0.4-2.9,1.2c-1,0.8-1.7,1.8-2.1,3.1l-5.2,23
			h70.1l-8.6,39.7h-70.5l-15.1,67.1h-42.6L136,642.4c6.7-19.2,19-28.8,36.9-28.8h36.2h42.8h40.5l-9.1,39.7H213.7z M480.4,658.3
			c0,0.1,0,0.3-0.1,0.5c-0.1,0.3-0.2,0.6-0.3,1.1c-0.1,0.5-0.3,1.2-0.5,2.1c-0.2,1-0.5,2.1-0.8,3.6c-0.3,1.4-0.8,3.2-1.3,5.3
			c-0.5,2.1-1.1,4.5-1.8,7.4c-0.7,2.9-1.5,6.1-2.4,9.9c-0.9,3.7-1.9,7.9-3,12.6c-1.1,4.7-2.4,9.9-3.8,15.7c-1.4,5.8-3,12.2-4.7,19.3
			c-1.7,7.1-3.6,14.7-5.6,23c-6.8,19.2-20.1,28.8-39.7,28.8c-0.1,0-0.2,0-0.5,0c-0.2,0-0.5,0-1,0c-0.4,0-1.1,0-1.9,0s-1.9,0-3.2,0
			c-1.3,0-2.9,0-4.7,0c-1.8,0-4,0-6.6,0c-2.6,0-5.5,0-8.8,0s-7,0-11.2,0c-4.2,0-8.8,0-14,0s-10.9,0-17.1,0c-6.2,0-13.1,0-20.5,0
			c-13.2,0-23.7-4.5-31.7-13.5c-8-9-10.8-19.4-8.4-31.2c0-0.1,0-0.3,0.1-0.5c0-0.3,0.1-0.6,0.3-1.1c0.1-0.5,0.3-1.2,0.5-2.1
			c0.2-1,0.5-2.1,0.9-3.6c0.4-1.4,0.8-3.2,1.3-5.3c0.5-2.1,1.1-4.5,1.8-7.4c0.7-2.9,1.5-6.1,2.4-9.9c0.9-3.7,1.9-7.9,3.1-12.6
			c1.2-4.7,2.4-9.9,3.8-15.7c1.4-5.8,2.9-12.2,4.7-19.3c1.7-7.1,3.6-14.7,5.6-23c7.6-19.2,20.9-28.8,39.8-28.8c0.1,0,0.2,0,0.4,0
			c0.2,0,0.5,0,1,0c0.5,0,1.1,0,1.9,0c0.8,0,1.9,0,3.2,0s2.9,0,4.7,0c1.9,0,4.1,0,6.6,0c2.6,0,5.5,0,8.8,0c3.3,0,7.1,0,11.3,0
			c4.2,0,8.9,0,14.1,0s10.9,0,17.2,0c6.3,0,13.2,0,20.7,0c12.8,0,23.2,4.5,31.2,13.5C480.2,636.1,482.9,646.5,480.4,658.3z
			 M475.9,581.5c-0.8,0-1.6,0.3-2.1,0.9c-0.6,0.6-0.8,1.4-0.8,2.2l0.2,3.9c-9.8-4.6-20.6-7-32.3-7H351c-6.6,0-13.1,0.8-19.2,2.3
			c-0.1-0.4-0.3-0.8-0.6-1.2c-0.6-0.7-1.4-1.1-2.3-1.1H224.2C227.6,535.8,246,466,266,423.9c14.5-30.7,31.4-53.9,43.2-68.2
			c45.8,34.4,80,42.7,108.6,47.7c14.9,2.6,37.6,10.3,44.9,15.3c16.1,10.9,27.1,27.8,32.4,35.9c1.2,1.9,2.2,3.4,2.9,4.3
			c0.8,1,2,1.6,3.3,1.6c1.3,0,2.5-0.6,3.3-1.6c0.4-0.5,0.8-1.2,1.4-1.9c5.5-7.6,20.2-27.9,39-38.3c7.3-4.1,17.8-7.4,29.9-11.3
			c4.6-1.5,9.8-3,15.4-4.6c27.7-8.1,64.7-18.9,101.2-44.1c12.2,13.5,30.1,35.3,42.2,59.5c27.2,54.3,42.6,109.2,46,163.4h-87.9
			c-1.8,0-3.4,1-4.2,2.6l-13.7,28.4c-0.8,1.6-3.2,1.1-3.3-0.7l-1.5-26c-0.1-2.5-2.2-4.4-4.6-4.4H475.9z M607.5,787.5l-3.2-55.6
			L577,787.5h-25.2c-9.7,0-18-3.3-25-9.8c-7-6.5-10.8-14.8-11.6-24.7l-8.3-139.4h41.4l7.3,130.3l44-90.7l-2.5-39.6h41.4l7.4,130.3
			L709,613.6h39.3h3.1l-75.5,156.2l0,0l-8.6,17.7H607.5z M796.1,613.6h12.3L786.2,709h0.1l-7.7,32.6c-0.3,1.6,0.1,3.1,1.2,4.3
			c1,1.2,2.4,1.8,4,1.8H838v0.1h48.2c-2,8.5-4.1,17.6-6.4,27.3c-1,4.1-1.9,8.2-3,12.5H773.1c-12.4,0-22.4-4.5-30.1-13.5
			c-7.7-9-10.3-19.4-7.8-31.2l15.5-66.3v0l8-34.1c2.1-8.7,6.6-15.7,13.5-21c1-0.8,2-1.4,3.1-2.1c0.3-0.2,0.6-0.4,1-0.6
			c0.8-0.4,1.5-0.9,2.3-1.2c0.4-0.2,0.7-0.3,1.1-0.5c0.8-0.4,1.7-0.7,2.5-1c0.3-0.1,0.6-0.2,0.9-0.3c1.2-0.4,2.3-0.8,3.5-1v0
			C789.5,614,792.7,613.6,796.1,613.6z M893.1,367.5c-1.1,1.6-44.9,76-92.7,157.4c-6.8-35.2-22.7-81.6-38.1-112.3
			c-9.2-18.3-20.1-35.5-30.5-49.8l159.5,1.2C891.3,364,895.5,364,893.1,367.5z"/>
	</g>
	<path class="st4" d="M475.9,581.5h188.6c2.5,0,4.5,1.9,4.6,4.4l1.5,26c0.1,1.8,2.5,2.3,3.3,0.7l13.7-28.4c0.8-1.6,2.4-2.6,4.2-2.6
		h76c-0.9-13.3-2.5-28.5-4.4-36.1c-5.8-23.4-13.1-63.1-35.9-104.5c-3-5.4-16.4-30.8-22-33.4c-2.3,11.9-10.5,29.7-15.2,39
		c-5.8,11.7-19.8,27.3-31.5,37.3c-16.4,14-47.6,24.3-73.9,18.5c-9.7-2.2-24.7-4.2-37.2-10.2c-10.1,37.1-39.9,79.5-46.1,80.7
		c-8.3-1.2-29.3-37.1-39.8-67.8c-0.4-1.2-1.4-2.2-2.4-2.9c-1-0.7-2.3-1-3.5-0.9c-23.1,1.6-45.1,1.5-67-4.7
		c-20.4-5.8-35.6-14.8-49.8-29c-14.6-14.6-25.7-40.9-34.7-62c-2.7-5.4-15.1,15.2-22,27c-18,30.8-37.7,96.8-42.3,149.2H329
		c0.9,0,1.7,0.4,2.3,1.1c0.3,0.3,0.5,0.8,0.6,1.2c6.1-1.5,12.5-2.3,19.2-2.3H441c11.6,0,22.5,2.3,32.3,7l-0.2-3.9
		c0-0.8,0.2-1.6,0.8-2.2C474.3,581.8,475.1,581.5,475.9,581.5z"/>
	<path class="st8" d="M428.1,472.1c5.1-1.9,10.2-4.7,15.2-8.4c1.8-1.3,2-3.8,0.6-5.4c-2.5-2.8-5.8-6.2-9.9-9.7
		C438.8,460.5,435.8,467.8,428.1,472.1z"/>
	<g>
		<path class="st6" d="M437.4,451.6c0.6,0.6,1.2,1.1,1.8,1.7C438.6,452.8,438,452.2,437.4,451.6z"/>
		<path class="st6" d="M442.1,456.3c0.7,0.7,1.3,1.4,1.9,2C443.3,457.6,442.7,457,442.1,456.3z"/>
		<path class="st6" d="M434.1,448.5c0.9,0.8,1.8,1.6,2.7,2.4C435.9,450.2,435,449.4,434.1,448.5z"/>
		<path class="st6" d="M441.5,455.7c-0.5-0.5-1-1-1.6-1.6C440.5,454.6,441,455.1,441.5,455.7z"/>
		<path class="st6" d="M432,470.5c-1.3,0.6-2.5,1.1-3.8,1.6C429.4,471.6,430.7,471.1,432,470.5z"/>
		<path class="st6" d="M439.5,466.4c-1,0.6-1.9,1.2-2.9,1.7C437.5,467.5,438.5,467,439.5,466.4z"/>
		<path class="st6" d="M434.1,448.5c-8.9-7.9-21.4-16.7-36.8-21.8c-16.2-5.4-30.3-8.2-42.8-10.7c-2.5-0.5-5-1-7.4-1.5
			c-6.2-1.3-11.4,1.7-7.7,10.8c4.8,11.8,14.1,23.5,30.8,34.6c21.8,14.5,40.3,18.6,57.9,12.1C435.8,467.8,438.8,460.5,434.1,448.5z"
			/>
		<path class="st6" d="M432,470.4c1.2-0.6,2.4-1.2,3.7-1.8C434.5,469.3,433.3,469.9,432,470.4z"/>
	</g>
	<path class="st8" d="M662.5,426.5c5.9-11.2-1.4-13.1-8.1-11.8c-0.9,0.2-1.9,0.4-2.8,0.6c5.9,13.4-3,29.6-15,42.7
		C649.9,448,657.2,436.6,662.5,426.5z"/>
</g>
</svg>
